<?xml version="1.0" standalone="no"?>
<!DOCTYPE svg PUBLIC "-//W3C//DTD SVG 20010904//EN"
 "http://www.w3.org/TR/2001/REC-SVG-20010904/DTD/svg10.dtd">
<svg version="1.0" xmlns="http://www.w3.org/2000/svg"
 width="1000.000000pt" height="1000.000000pt" viewBox="0 0 1000.000000 1000.000000"
 preserveAspectRatio="xMidYMid meet">
<metadata>
Created by potrace 1.11, written by Peter Selinger 2001-2013
</metadata>
<g transform="translate(0.000000,1000.000000) scale(0.100000,-0.100000)"
fill="#000000" stroke="none">
<path d="M0 5000 l0 -5000 5000 0 5000 0 0 5000 0 5000 -5000 0 -5000 0 0
-5000z m3504 4056 c46 -19 66 -52 66 -106 0 -49 -17 -82 -53 -102 -17 -10
-207 -14 -827 -18 l-805 -6 -103 -27 c-395 -103 -606 -367 -651 -811 -7 -68
-11 -375 -11 -813 0 -764 1 -746 -55 -771 -59 -27 -136 -8 -161 39 -21 42 -21
1497 1 1662 67 515 370 843 859 933 157 28 246 31 984 33 598 1 728 -1 756
-13z m4671 -9 c272 -48 467 -142 621 -299 126 -128 209 -276 259 -461 50 -185
54 -268 55 -1070 0 -647 -2 -743 -15 -772 -19 -39 -51 -55 -111 -55 -37 0 -51
6 -75 29 l-29 29 0 699 c0 398 -5 749 -11 816 -43 490 -300 777 -763 852 -74
12 -228 15 -834 15 -799 0 -789 -1 -826 51 -10 14 -16 44 -16 75 0 42 5 56 26
77 14 14 35 28 47 30 12 3 373 4 802 2 658 -2 794 -5 870 -18z m-5492 -2370
c62 -36 89 -73 264 -352 491 -783 668 -1065 691 -1102 15 -24 32 -43 37 -43 9
0 109 156 682 1068 117 185 233 358 257 383 53 56 113 79 203 79 214 0 347
-184 279 -388 -11 -31 -114 -200 -261 -425 -134 -204 -291 -444 -348 -532 -58
-88 -195 -298 -306 -466 l-200 -307 -3 -588 -3 -589 -26 -55 c-31 -67 -73
-111 -136 -141 -39 -19 -64 -23 -138 -23 -112 0 -177 25 -235 92 -74 84 -74
75 -78 729 l-3 582 -81 123 c-45 68 -123 187 -175 266 -234 358 -289 441 -428
652 -457 695 -450 683 -443 805 6 86 31 138 94 194 63 55 117 71 225 68 72 -3
93 -7 132 -30z m4113 -882 c301 -52 545 -194 710 -413 154 -203 234 -448 234
-717 0 -113 -2 -125 -27 -175 -16 -30 -44 -66 -63 -82 -73 -57 -82 -58 -912
-58 l-758 0 0 -49 c0 -78 29 -219 59 -292 73 -173 202 -289 381 -343 87 -26
239 -31 345 -12 170 32 291 110 448 287 96 108 146 134 249 127 93 -7 152 -43
190 -117 47 -89 35 -182 -39 -304 -215 -355 -725 -532 -1273 -441 -487 82
-808 400 -917 912 -25 117 -27 145 -28 362 0 267 15 372 81 562 44 125 70 179
141 286 164 248 422 410 738 466 109 19 331 20 441 1z m-5753 -2266 c26 -7 44
-21 57 -42 19 -31 20 -56 20 -750 0 -444 4 -754 11 -814 31 -278 132 -492 296
-628 73 -60 213 -134 303 -159 169 -48 183 -48 1004 -53 l779 -5 29 -28 c22
-23 28 -37 28 -74 0 -60 -16 -92 -55 -111 -29 -13 -124 -15 -757 -15 -416 0
-770 4 -833 10 -456 43 -778 256 -928 614 -44 106 -83 261 -97 388 -6 58 -10
398 -10 845 0 725 1 749 20 780 16 27 47 45 90 52 3 1 22 -4 43 -10z m8004 -8
c33 -16 44 -27 53 -58 8 -27 10 -259 7 -828 -4 -866 -3 -849 -67 -1055 -70
-227 -204 -411 -384 -529 -131 -85 -243 -130 -431 -172 -98 -22 -114 -23 -910
-26 -793 -4 -811 -3 -842 16 -66 41 -66 146 0 195 28 21 35 21 825 27 768 5
800 6 884 27 390 95 620 351 676 752 7 43 14 395 17 835 7 847 2 796 76 822
45 16 47 16 96 -6z"/>
<path d="M6444 5335 c-240 -52 -433 -285 -456 -550 l-3 -40 589 -3 589 -2 -6
67 c-12 149 -81 297 -183 396 -127 122 -335 174 -530 132z"/>
</g>
</svg>
